2.2Hzlow3min_grf.mot
version=1
nRows=17
nColumns 19
inDegrees=yes
endheader
time	1_ground_force_vx	1_ground_force_vy	1_ground_force_vz	1_ground_force_px	1_ground_force_py	1_ground_force_pz	1_ground_torque_x	1_ground_torque_y	1_ground_torque_z	2_ground_force_vx	2_ground_force_vy	2_ground_force_vz	2_ground_force_px	2_ground_force_py	2_ground_force_pz	2_ground_torque_x	2_ground_torque_y	2_ground_torque_z
            1.253500	            0.000435	            1.981546	            0.329494	           -0.233013	            0.005581	           -0.255695	            0.097711	            0.036924	            0.018643	            0.419491	            0.555306	           -0.373633	           -0.232311	            0.006130	           -0.833667	           -0.319596	            0.046715	           -0.169347
            1.254000	            0.138192	            1.981180	            0.420864	           -0.233013	            0.005581	           -0.255695	            0.150036	            0.046405	           -0.013178	           -0.003652	            0.923420	           -0.747564	           -0.232311	            0.006130	           -0.833667	           -0.263222	            0.037601	           -0.207105
            1.254500	            0.183890	            0.900184	            0.278545	           -0.233013	            0.005581	           -0.255695	            0.307102	            0.064374	            0.120089	            0.373888	            0.187510	           -0.562640	           -0.232311	            0.006130	           -0.833667	           -0.206474	           -0.066310	           -0.169800
            1.255000	            0.184133	            1.440391	            0.418432	           -0.233013	            0.005581	           -0.255695	            0.262943	           -0.036582	           -0.049436	            0.465594	            0.740293	           -0.560708	           -0.232311	            0.006130	           -0.833667	           -0.356697	           -0.085691	           -0.188654
            1.255500	            0.550095	            1.982439	            0.144705	           -0.233013	            0.005581	           -0.255695	            0.237017	           -0.082967	            0.041240	            0.324318	            0.924436	           -0.700776	           -0.232311	            0.006130	           -0.833667	           -0.225192	           -0.085283	           -0.169860
            1.256000	            0.138404	            1.440186	            0.464402	           -0.233013	            0.005581	           -0.255695	            0.167359	           -0.055510	            0.042756	            0.230618	            0.924098	           -0.700736	           -0.232311	            0.006130	           -0.833667	           -0.319050	           -0.104528	           -0.169887
            1.256500	            0.367637	            0.719364	            0.414885	           -0.233013	            0.005581	           -0.255695	            0.225887	           -0.064235	           -0.041618	            0.187256	            0.001848	           -0.328576	           -0.232311	            0.006130	           -0.833667	           -0.337998	           -0.057399	           -0.150860
            1.257000	            0.230204	            1.440007	            0.510030	           -0.233013	            0.005581	           -0.255695	            0.202899	            0.009326	            0.028057	            0.188400	           -0.364942	           -0.752243	           -0.232311	            0.006130	           -0.833667	           -0.319528	            0.027810	           -0.169415
            1.257500	            0.276047	            1.440016	            0.509916	           -0.233013	            0.005581	           -0.255695	            0.221623	            0.046404	            0.011326	           -0.049755	            0.738433	           -0.560489	           -0.232311	            0.006130	           -0.833667	           -0.206653	           -0.018979	           -0.188482
            1.258000	            0.458898	            1.801369	            0.327583	           -0.233013	            0.005581	           -0.255695	            0.229517	            0.018270	            0.131780	            0.464867	            0.924944	           -0.700836	           -0.232311	            0.006130	           -0.833667	           -0.225295	           -0.047741	           -0.094324
            1.258500	            0.092414	            1.620639	            0.419432	           -0.233013	            0.005581	           -0.255695	            0.281813	            0.018437	            0.040827	            0.185036	            0.556134	           -0.842814	           -0.232311	            0.006130	           -0.833667	           -0.319178	           -0.066784	           -0.150902
            1.259000	            0.321288	            1.621273	            0.281296	           -0.233013	            0.005581	           -0.255695	            0.156178	           -0.092166	           -0.005956	            0.280188	            0.187172	           -0.562600	           -0.232311	            0.006130	           -0.833667	           -0.262755	           -0.076302	           -0.075559
            1.259500	            0.229197	            0.720910	            0.048379	           -0.233013	            0.005581	           -0.255695	            0.241568	           -0.101362	           -0.028883	            0.375155	           -0.180284	           -0.704738	           -0.232311	            0.006130	           -0.833667	           -0.262889	           -0.056859	           -0.226293
            1.260000	            0.275915	            2.161079	            0.513008	           -0.233013	            0.005581	           -0.255695	            0.146181	           -0.046205	            0.048687	            0.418579	            0.741463	           -0.936113	           -0.232311	            0.006130	           -0.833667	           -0.319151	           -0.085353	           -0.245220
            1.260500	            0.229488	            1.621452	            0.235667	           -0.233013	            0.005581	           -0.255695	            0.346014	           -0.000061	            0.065251	            0.135630	            1.291722	           -0.605526	           -0.232311	            0.006130	           -0.833667	           -0.338167	           -0.019320	           -0.226126
            1.261000	            0.275885	            1.079878	            0.416658	           -0.233013	            0.005581	           -0.255695	            0.188592	            0.054993	            0.161842	            0.089362	            1.108074	           -0.793875	           -0.232311	            0.006130	           -0.833667	           -0.319391	           -0.010001	           -0.169550
            1.261500	            0.137931	            2.161838	            0.329926	           -0.233013	            0.005581	           -0.255695	            0.191435	           -0.027618	            0.005194	            0.326291	            0.372159	           -0.749675	           -0.232311	            0.006130	           -0.833667	           -0.262889	           -0.056859	           -0.226293
